<svg xmlns="http://www.w3.org/2000/svg" width="618" height="119" fill="none" viewBox="0 0 618 119"><path fill="#F4F4F4" d="M83.906 20.156H62.625c-8.031-.25-9.219 1.969-3.563 6.657 10.126 8.875 15.094 17.5 14.907 25.875-.188 8.374-5.156 13.374-14.906 15H0V47.53h37.313c8.843.25 9.968-2.218 3.374-7.406-10.874-10-15.5-19.188-13.874-27.563C28.438 4.188 33.563 0 42.188 0h41.718v20.156ZM140.812 0v20.156h-21.468v47.532H97.313V20.156H83.906V0h56.906ZM136.594 67.688 158.859 0h33.61l22.64 67.688h-25.593L185.25 55.5h-20.109l-4.266 12.188h-24.281ZM175.734 15l-9.703 26.813h18.657L175.734 15Z"/><path fill="#F4F4F4" d="M214.219 67.688V0h44.062c5.438.5 9.907 1.938 13.407 4.313s6.062 5.562 7.687 9.562c1.25 6 1.313 10.625.187 13.875-1.124 3.25-3.093 5.969-5.906 8.156-2.812 2.188-6.844 3.907-12.094 5.157l5.063 6.468h20.25v20.157h-26.719l-21.468-22.36v22.36h-24.469Zm24.469-50.813v12.469h17.062c.906 0 1.891-.328 2.953-.985 1.063-.687 1.625-2.39 1.688-5.109-.157-2.594-.797-4.297-1.922-5.11-1.094-.843-2.016-1.265-2.766-1.265h-17.015ZM375.75 39l-7.125 28.688h-22.031l-15.563-47.532h-14.062V0H348l9.281 29.25L365.344 0h20.25l9.422 29.25L401.297 0h21.797v18.141h-5.532l-11.203 49.547h-22.031L375.75 39Z"/><path fill="#F4F4F4" d="m448.359 15-9.703 26.813h18.656L448.359 15ZM423.094 0h-14.813 56.813l22.64 67.688h-25.593L457.875 55.5h-20.109L433.5 67.688h-24.281l13.875-49.547V0Z"/><path fill="#F4F4F4" d="M486.844 67.688V0h44.062c5.438.5 9.906 1.938 13.406 4.313s6.063 5.562 7.688 9.562c1.25 6 1.312 10.625.188 13.875-1.126 3.25-3.094 5.969-5.907 8.156-2.812 2.188-6.843 3.907-12.093 5.157l5.062 6.468h36.188v20.157h-42.657l-21.469-22.36v22.36h-24.468Zm24.468-50.813v12.469h17.063c.906 0 1.891-.328 2.953-.985 1.063-.687 1.625-2.39 1.688-5.109-.157-2.594-.797-4.297-1.922-5.11-1.094-.843-2.016-1.265-2.766-1.265h-17.016Z"/><path fill="#F4F4F4" d="M617.531 20.156H596.25c-8.031-.25-9.219 1.969-3.562 6.657 10.124 8.875 15.093 17.5 14.906 25.875-.188 8.374-5.156 13.374-14.906 15h-59.063 41.813V47.53c8.843.25 5.468-2.218-1.126-7.406-10.874-10-15.5-19.188-13.874-27.563C562.062 4.188 567.188 0 575.812 0h41.719v20.156Z"/><path fill="#FFE81F" d="M243.125 96.352v3.615h-9.312v5.728h7.136v3.552h-7.136v9.441h-4.48V96.351h13.792ZM265.182 96.352v22.336h-4.48V96.351h4.48ZM303.112 118.688h-4.48l-10.144-15.329v15.329h-4.48V96.32h4.48l10.144 15.359v-15.36h4.48v22.369ZM329.747 96.352c2.347 0 4.406.458 6.176 1.376 1.792.917 3.168 2.229 4.128 3.935.982 1.686 1.472 3.648 1.472 5.888 0 2.24-.49 4.203-1.472 5.888-.96 1.664-2.336 2.955-4.128 3.873-1.77.917-3.829 1.376-6.176 1.376h-7.808V96.351h7.808Zm-.16 18.528c2.347 0 4.16-.64 5.44-1.92 1.28-1.28 1.92-3.083 1.92-5.409 0-2.325-.64-4.138-1.92-5.44-1.28-1.322-3.093-1.983-5.44-1.983h-3.168v14.752h3.168ZM363.757 99.968v5.599h7.52v3.552h-7.52v5.92h8.48v3.649h-12.96V96.32h12.96v3.648h-8.48ZM402.228 118.688l-4.928-8.705h-2.112v8.705h-4.48V96.351h8.384c1.728 0 3.2.31 4.416.928 1.216.598 2.123 1.42 2.72 2.465.619 1.023.928 2.176.928 3.456a6.724 6.724 0 0 1-1.28 4c-.853 1.173-2.123 1.984-3.808 2.432l5.344 9.056h-5.184Zm-7.04-12.065h3.744c1.216 0 2.123-.288 2.72-.864.597-.597.896-1.418.896-2.463 0-1.024-.299-1.814-.896-2.369-.597-.576-1.504-.864-2.72-.864h-3.744v6.56Z"/></svg>
